<?xml version="1.0" encoding="UTF-8"?>
<svg width="700pt" height="700pt" version="1.1" viewBox="0 0 700 700" xmlns="http://www.w3.org/2000/svg">
 <path d="m367.43 105.04c-80.395 0-148.28 54.496-168.68 128.49h-30.898c-3.9062 0.023437-7.4727 2.2305-9.2383 5.7188-1.7617 3.4844-1.4258 7.6641 0.87109 10.824l44.297 60.594c1.9609 2.6953 5.0898 4.2852 8.4219 4.2852 3.3281 0 6.4609-1.5898 8.4219-4.2852l44.215-60.594c2.2969-3.1641 2.6328-7.3477 0.86328-10.836-1.7734-3.4883-5.3477-5.6914-9.2578-5.707h-28.52c19.383-58.473 74.406-100.49 139.51-100.49 81.352 0 147.05 65.594 147.05 146.95s-65.703 146.97-147.05 146.97c-48.48 0-93.793-23.895-121.21-63.875-4.3789-6.3555-13.074-7.9688-19.441-3.6055-3.0781 2.1016-5.1875 5.3438-5.8633 9.0078-0.67969 3.6641 0.13281 7.4492 2.2539 10.516 32.625 47.566 86.586 75.961 144.27 75.961 96.484 0 175.08-78.488 175.08-174.97s-78.598-174.95-175.08-174.95zm-9.707 86.297c-3.7148 0.015624-7.2695 1.5039-9.8828 4.1406-2.6172 2.6367-4.0781 6.2031-4.0625 9.9141v86.598c-0.003906 4.6289 2.2773 8.957 6.0977 11.566l47.113 32.156c6.375 4.3594 15.07 2.7305 19.441-3.6367 4.3359-6.3672 2.7109-15.043-3.6367-19.414l-41.016-28.109v-79.16c0.011718-3.7305-1.4609-7.3125-4.1016-9.9531-2.6406-2.6367-6.2227-4.1133-9.9531-4.1016z" fill-rule="evenodd"/>
</svg>
