<?xml version="1.0" encoding="UTF-8"?>
<svg width="700pt" height="700pt" version="1.1" viewBox="0 0 700 700" xmlns="http://www.w3.org/2000/svg">
 <g>
  <path d="m192.5 490h175c13.926 0 27.277-5.5312 37.125-15.375 9.8438-9.8477 15.375-23.199 15.375-37.125v-17.5c0-6.2539-3.3359-12.031-8.75-15.156s-12.086-3.125-17.5 0-8.75 8.9023-8.75 15.156v17.5c0 4.6406-1.8438 9.0938-5.125 12.375s-7.7344 5.125-12.375 5.125h-175c-4.6406 0-9.0938-1.8438-12.375-5.125s-5.125-7.7344-5.125-12.375v-315c0-4.6406 1.8438-9.0938 5.125-12.375s7.7344-5.125 12.375-5.125h175c4.6406 0 9.0938 1.8438 12.375 5.125s5.125 7.7344 5.125 12.375v17.5c0 6.2539 3.3359 12.031 8.75 15.156s12.086 3.125 17.5 0 8.75-8.9023 8.75-15.156v-17.5c0-13.926-5.5312-27.277-15.375-37.125-9.8477-9.8438-23.199-15.375-37.125-15.375h-175c-13.926 0-27.277 5.5312-37.125 15.375-9.8438 9.8477-15.375 23.199-15.375 37.125v315c0 13.926 5.5312 27.277 15.375 37.125 9.8477 9.8438 23.199 15.375 37.125 15.375z"/>
  <path d="m495.07 193.38c-4.5039-3.8594-10.656-5.1719-16.344-3.4883-5.6875 1.6797-10.137 6.1289-11.82 11.816s-0.36719 11.84 3.4883 16.348l44.277 44.449h-252.18c-6.2539 0-12.031 3.3359-15.156 8.75s-3.125 12.086 0 17.5 8.9023 8.75 15.156 8.75h252.18l-44.273 44.449h-0.003906c-3.2578 3.2812-5.0859 7.7148-5.0859 12.34 0 4.6211 1.8281 9.0586 5.0859 12.336 3.2812 3.2578 7.7148 5.0898 12.34 5.0898 4.6211 0 9.0586-1.832 12.336-5.0898l49.523-49.523h0.003906c9.8281-9.8438 15.352-23.188 15.352-37.102s-5.5234-27.258-15.352-37.102z"/>
 </g>
</svg>
