<?xml version="1.0" encoding="UTF-8"?>
<svg width="700pt" height="700pt" version="1.1" viewBox="0 0 700 700" xmlns="http://www.w3.org/2000/svg">
 <path d="m525 386.05v-1.0508-280c0-13.926-5.5312-27.277-15.375-37.125-9.8477-9.8438-23.199-15.375-37.125-15.375h-245c-13.926 0-27.277 5.5312-37.125 15.375-9.8438 9.8477-15.375 23.199-15.375 37.125v350c0 13.926 5.5312 27.277 15.375 37.125 9.8477 9.8438 23.199 15.375 37.125 15.375h175c2.2852-0.027344 4.5469-0.50391 6.6484-1.3984 2.1211-0.88672 4.0742-2.1289 5.7773-3.6758l105-105c1.3672-1.5703 2.4883-3.3438 3.3242-5.25 0.066406-0.52344 0.066406-1.0547 0-1.5742 0.6875-1.4766 1.2734-2.9961 1.75-4.5508zm-315 68.949v-350c0-4.6406 1.8438-9.0938 5.125-12.375s7.7344-5.125 12.375-5.125h245c4.6406 0 9.0938 1.8438 12.375 5.125s5.125 7.7344 5.125 12.375v262.5h-87.5c-4.6406 0-9.0938 1.8438-12.375 5.125s-5.125 7.7344-5.125 12.375v87.5h-157.5c-4.6406 0-9.0938-1.8438-12.375-5.125s-5.125-7.7344-5.125-12.375zm210-7.1758v-45.324h45.324zm-140-289.27c0-4.6406 1.8438-9.0938 5.125-12.375s7.7344-5.125 12.375-5.125h107.62c6.2539 0 12.031 3.3359 15.156 8.75 3.125 5.4141 3.125 12.086 0 17.5-3.125 5.4141-8.9023 8.75-15.156 8.75h-107.62c-4.6406 0-9.0938-1.8438-12.375-5.125-3.2812-3.2852-5.125-7.7344-5.125-12.375zm-35 87.5c0-4.6406 1.8438-9.0938 5.125-12.375s7.7344-5.125 12.375-5.125h177.62c6.2539 0 12.031 3.3359 15.156 8.75 3.125 5.4141 3.125 12.086 0 17.5-3.125 5.4141-8.9023 8.75-15.156 8.75h-177.62c-4.8281 0.007813-9.4453-1.9805-12.762-5.4922-3.3125-3.5117-5.0273-8.2383-4.7383-13.059zm17.5 87.5c-6.2539 0-12.031-3.3359-15.156-8.75-3.125-5.4141-3.125-12.086 0-17.5 3.125-5.4141 8.9023-8.75 15.156-8.75h175c6.2539 0 12.031 3.3359 15.156 8.75 3.125 5.4141 3.125 12.086 0 17.5-3.125 5.4141-8.9023 8.75-15.156 8.75z"/>
</svg>
